<svg width="1907" height="841" viewBox="0 0 1907 841" fill="none" xmlns="http://www.w3.org/2000/svg">
<path d="M781.432 726.977H607.29V655.109H709.563V143.737H142.908V326.172L71.0398 254.304V71.8687H781.432V726.977Z" fill="#1A0F2E"/>
<path d="M382.884 492.299C399.193 492.299 413.428 495.616 425.591 502.25C438.029 508.884 447.566 517.592 454.2 528.372V495.616H525.101V726.563C525.101 747.847 520.816 767.058 512.248 784.196C503.955 801.61 491.102 815.431 473.687 825.658C456.549 835.886 435.127 841 409.42 841C375.145 841 347.365 832.845 326.08 816.537C304.796 800.504 292.634 778.668 289.593 751.026H359.665C361.877 759.871 367.128 766.782 375.421 771.757C383.714 777.009 393.941 779.635 406.103 779.635C420.753 779.635 432.363 775.351 440.932 766.782C449.777 758.489 454.2 745.083 454.2 726.563V693.807C447.289 704.588 437.753 713.433 425.591 720.344C413.428 726.978 399.193 730.295 382.884 730.295C363.811 730.295 346.535 725.457 331.056 715.783C315.577 705.832 303.276 691.873 294.154 673.905C285.309 655.662 280.886 634.654 280.886 610.882C280.886 587.11 285.309 566.241 294.154 548.274C303.276 530.307 315.577 516.486 331.056 506.811C346.535 497.137 363.811 492.299 382.884 492.299ZM454.2 611.297C454.2 593.606 449.224 579.647 439.273 569.42C429.599 559.192 417.713 554.079 403.616 554.079C389.518 554.079 377.494 559.192 367.543 569.42C357.868 579.371 353.031 593.192 353.031 610.882C353.031 628.573 357.868 642.67 367.543 653.174C377.494 663.402 389.518 668.515 403.616 668.515C417.713 668.515 429.599 663.402 439.273 653.174C449.224 642.947 454.2 628.988 454.2 611.297Z" fill="#1A0F2E"/>
<path d="M252.093 435.911V726.978H181.192V607.151H70.901V726.978H0V435.911H70.901V549.933H181.192V435.911H252.093Z" fill="#1A0F2E"/>
<path d="M1812.36 730.295C1792.19 730.295 1774.22 726.839 1758.46 719.929C1742.71 713.018 1730.27 703.62 1721.15 691.734C1712.02 679.572 1706.91 666.028 1705.81 651.101H1775.88C1776.71 659.117 1780.44 665.613 1787.07 670.588C1793.71 675.564 1801.86 678.052 1811.53 678.052C1820.38 678.052 1827.15 676.393 1831.85 673.076C1836.83 669.483 1839.31 664.922 1839.31 659.394C1839.31 652.76 1835.86 647.922 1828.95 644.882C1822.04 641.565 1810.84 637.971 1795.36 634.101C1778.78 630.232 1764.96 626.223 1753.9 622.077C1742.85 617.655 1733.31 610.882 1725.29 601.761C1717.28 592.362 1713.27 579.785 1713.27 564.03C1713.27 550.762 1716.86 538.737 1724.05 527.957C1731.51 516.9 1742.29 508.193 1756.39 501.836C1770.76 495.478 1787.76 492.299 1807.39 492.299C1836.41 492.299 1859.22 499.486 1875.8 513.86C1892.66 528.234 1902.34 547.306 1904.83 571.078H1839.31C1838.21 563.062 1834.62 556.705 1828.53 552.005C1822.73 547.306 1814.99 544.957 1805.32 544.957C1797.02 544.957 1790.67 546.615 1786.24 549.932C1781.82 552.973 1779.61 557.257 1779.61 562.786C1779.61 569.42 1783.06 574.395 1789.97 577.712C1797.16 581.029 1808.22 584.346 1823.14 587.663C1840.28 592.086 1854.24 596.509 1865.02 600.931C1875.8 605.078 1885.2 611.988 1893.22 621.663C1901.51 631.061 1905.79 643.776 1906.07 659.808C1906.07 673.353 1902.2 685.515 1894.46 696.295C1887 706.799 1876.08 715.092 1861.7 721.173C1847.61 727.254 1831.16 730.295 1812.36 730.295Z" fill="#1A0F2E"/>
<path d="M1461.4 611.297C1461.4 587.249 1466.23 566.241 1475.91 548.274C1485.86 530.307 1499.54 516.486 1516.96 506.811C1534.65 497.137 1554.83 492.299 1577.49 492.299C1606.52 492.299 1630.7 499.901 1650.05 515.104C1669.68 530.307 1682.53 551.729 1688.61 579.371H1613.15C1606.79 561.68 1594.49 552.835 1576.25 552.835C1563.26 552.835 1552.89 557.948 1545.15 568.176C1537.41 578.127 1533.54 592.501 1533.54 611.297C1533.54 630.093 1537.41 644.605 1545.15 654.833C1552.89 664.784 1563.26 669.759 1576.25 669.759C1594.49 669.759 1606.79 660.914 1613.15 643.223H1688.61C1682.53 670.312 1669.68 691.596 1650.05 707.076C1630.43 722.555 1606.24 730.295 1577.49 730.295C1554.83 730.295 1534.65 725.457 1516.96 715.783C1499.54 706.108 1485.86 692.287 1475.91 674.32C1466.23 656.353 1461.4 635.345 1461.4 611.297Z" fill="#1A0F2E"/>
<path d="M1325.1 730.295C1302.43 730.295 1281.98 725.457 1263.74 715.783C1245.77 706.108 1231.53 692.287 1221.03 674.32C1210.8 656.353 1205.69 635.345 1205.69 611.297C1205.69 587.525 1210.94 566.656 1221.44 548.688C1231.95 530.445 1246.32 516.486 1264.57 506.811C1282.81 497.137 1303.26 492.299 1325.93 492.299C1348.6 492.299 1369.05 497.137 1387.29 506.811C1405.54 516.486 1419.91 530.445 1430.42 548.688C1440.92 566.656 1446.17 587.525 1446.17 611.297C1446.17 635.069 1440.78 656.077 1430 674.32C1419.5 692.287 1404.99 706.108 1386.47 715.783C1368.22 725.457 1347.77 730.295 1325.1 730.295ZM1325.1 668.93C1338.65 668.93 1350.12 663.954 1359.51 654.003C1369.19 644.052 1374.03 629.817 1374.03 611.297C1374.03 592.777 1369.33 578.542 1359.93 568.59C1350.81 558.639 1339.47 553.664 1325.93 553.664C1312.11 553.664 1300.64 558.639 1291.52 568.59C1282.39 578.265 1277.83 592.501 1277.83 611.297C1277.83 629.817 1282.26 644.052 1291.1 654.003C1300.22 663.954 1311.56 668.93 1325.1 668.93Z" fill="#1A0F2E"/>
<path d="M1035.87 435.911C1066.56 435.911 1093.37 441.992 1116.31 454.154C1139.25 466.317 1156.94 483.454 1169.38 505.568C1182.1 527.405 1188.46 552.697 1188.46 581.444C1188.46 609.915 1182.1 635.207 1169.38 657.321C1156.94 679.434 1139.12 696.572 1115.9 708.734C1092.95 720.897 1066.28 726.978 1035.87 726.978H926.827V435.911H1035.87ZM1031.31 665.613C1058.12 665.613 1078.99 658.288 1093.92 643.638C1108.85 628.988 1116.31 608.257 1116.31 581.444C1116.31 554.632 1108.85 533.762 1093.92 518.836C1078.99 503.909 1058.12 496.446 1031.31 496.446H997.728V665.613H1031.31Z" fill="#1A0F2E"/>
</svg>
