<svg width="929" height="915" viewBox="0 0 929 915" fill="none" xmlns="http://www.w3.org/2000/svg">
<path d="M850.19 790.945H660.724V712.753H771.998V156.385H155.482V354.873L77.2898 276.681V78.1924H850.19V790.945Z" fill="#1A0F2E"/>
<path d="M416.574 535.617C434.318 535.617 449.806 539.226 463.039 546.444C476.572 553.662 486.947 563.135 494.165 574.864V539.226H571.305V790.494C571.305 813.651 566.644 834.552 557.321 853.198C548.298 872.145 534.314 887.182 515.367 898.309C496.722 909.436 473.414 915 445.445 915C408.154 915 377.929 906.128 354.772 888.385C331.616 870.942 318.383 847.183 315.075 817.109H391.312C393.718 826.733 399.432 834.252 408.455 839.665C417.477 845.379 428.604 848.236 441.837 848.236C457.776 848.236 470.407 843.574 479.73 834.252C489.353 825.229 494.165 810.644 494.165 790.494V754.856C486.647 766.585 476.271 776.209 463.039 783.727C449.806 790.945 434.318 794.554 416.574 794.554C395.823 794.554 377.027 789.291 360.186 778.765C343.344 767.938 329.961 752.751 320.037 733.203C310.413 713.354 305.602 690.498 305.602 664.634C305.602 638.771 310.413 616.065 320.037 596.517C329.961 576.969 343.344 561.932 360.186 551.406C377.027 540.88 395.823 535.617 416.574 535.617ZM494.165 665.086C494.165 645.838 488.752 630.651 477.925 619.524C467.399 608.396 454.468 602.832 439.13 602.832C423.792 602.832 410.71 608.396 399.883 619.524C389.358 630.35 384.095 645.387 384.095 664.634C384.095 683.882 389.358 699.22 399.883 710.648C410.71 721.775 423.792 727.339 439.13 727.339C454.468 727.339 467.399 721.775 477.925 710.648C488.752 699.52 494.165 684.333 494.165 665.086Z" fill="#1A0F2E"/>
<path d="M274.274 474.267V790.945H197.135V660.575H77.1397V790.945H0V474.267H77.1397V598.322H197.135V474.267H274.274Z" fill="#1A0F2E"/>
</svg>
