<?xml version="1.0" encoding="UTF-8"?>
<svg width="1254px" height="1374px" viewBox="0 0 1254 1374" version="1.1" xmlns="http://www.w3.org/2000/svg" xmlns:xlink="http://www.w3.org/1999/xlink">
    <title>Hgraph-Logomark_White</title>
    <g id="Production" stroke="none" stroke-width="1" fill="none" fill-rule="evenodd">
        <g id="Hgraph-Logomark_" transform="translate(-532, -536)" fill="#FFFFFF" fill-rule="nonzero">
            <path d="M728.5,536 C837.023953,536 925,623.976047 925,732.5 C925,808.787624 881.52682,874.921543 818.002603,907.479614 L818,1064 L1559.5,1064 L1559.5,1124 L758.5,1124 L758.501904,865.692353 C819.455971,852.021606 865,797.579492 865,732.5 C865,657.113132 803.886868,596 728.5,596 C653.113132,596 592,657.113132 592,732.5 C592,797.579848 637.544526,852.022201 698.499095,865.692577 L698.500332,926.724456 L698.498334,1519.27585 L698.5,1519.275 L698.499095,1580.30742 C637.544526,1593.9778 592,1648.42015 592,1713.5 C592,1788.88687 653.113132,1850 728.5,1850 C803.886868,1850 865,1788.88687 865,1713.5 C865,1648.42051 819.455971,1593.97839 758.501904,1580.30765 L758.502666,1519.276 C852.785889,1533.72083 925,1615.17716 925,1713.5 C925,1822.02395 837.023953,1910 728.5,1910 C619.976047,1910 532,1822.02395 532,1713.5 C532,1637.41176 575.246232,1571.42422 638.499724,1538.77636 L638.499724,907.223643 C575.246232,874.575776 532,808.588237 532,732.5 C532,623.976047 619.976047,536 728.5,536 Z M1589.5,536 C1698.02395,536 1786,623.976047 1786,732.5 C1786,808.787624 1742.52682,874.921543 1679.0026,907.479614 L1679.0026,1538.52039 C1742.52682,1571.07846 1786,1637.21238 1786,1713.5 C1786,1822.02395 1698.02395,1910 1589.5,1910 C1480.97605,1910 1393,1822.02395 1393,1713.5 C1393,1637.39378 1436.26667,1571.39304 1499.54457,1538.75322 L1499.928,1379 L758.5,1379 L758.5,1319 L1559.5,1319 L1559.4991,1580.30742 C1498.54453,1593.9778 1453,1648.42015 1453,1713.5 C1453,1788.88687 1514.11313,1850 1589.5,1850 C1664.88687,1850 1726,1788.88687 1726,1713.5 C1726,1648.42051 1680.45597,1593.97839 1619.5019,1580.30765 L1619.5019,865.692353 C1680.45597,852.021606 1726,797.579492 1726,732.5 C1726,657.113132 1664.88687,596 1589.5,596 C1514.11313,596 1453,657.113132 1453,732.5 C1453,797.579848 1498.54453,852.022201 1559.4991,865.692577 L1559.49833,926.72415 C1465.21462,912.279749 1393,830.823189 1393,732.5 C1393,623.976047 1480.97605,536 1589.5,536 Z M1559.5,1192.5 L1559.5,1252.5 L758.5,1252.5 L758.5,1192.5 L1559.5,1192.5 Z" id="Hgraph-Logomark_White"></path>
        </g>
    </g>
</svg>